<mxfile host="app.diagrams.net" modified="2023-04-22T20:08:57.259Z" agent="Mozilla/5.0 (X11; Linux x86_64; rv:112.0) Gecko/20100101 Firefox/112.0" etag="NdOLQr5DeFdU0LhbgS4f" version="21.2.1" type="device">
  <diagram name="Page-1" id="tfmDBc3miOEakFV3B7y-">
    <mxGraphModel dx="2284" dy="723" grid="1" gridSize="10" guides="1" tooltips="1" connect="1" arrows="1" fold="1" page="1" pageScale="1" pageWidth="850" pageHeight="1100" math="0" shadow="0">
      <root>
        <mxCell id="0" />
        <mxCell id="1" parent="0" />
        <mxCell id="NPP5GdCvXKv0nV-kcgQ7-36" style="edgeStyle=orthogonalEdgeStyle;orthogonalLoop=1;jettySize=auto;html=1;startFill=1;endFill=0;rounded=0;entryX=0.5;entryY=1;entryDx=0;entryDy=0;" parent="1" edge="1">
          <mxGeometry relative="1" as="geometry">
            <mxPoint x="720" y="729.9999999999998" as="sourcePoint" />
          </mxGeometry>
        </mxCell>
        <mxCell id="7pt3q2MDJ_d6-O4SjyfG-86" value="Available system" style="shape=parallelogram;perimeter=parallelogramPerimeter;whiteSpace=wrap;html=1;fixedSize=1;fillColor=#dae8fc;strokeColor=#6c8ebf;" parent="1" vertex="1">
          <mxGeometry x="-100" y="610" width="140" height="60" as="geometry" />
        </mxCell>
        <mxCell id="7pt3q2MDJ_d6-O4SjyfG-128" style="rounded=0;orthogonalLoop=1;jettySize=auto;html=1;exitX=1;exitY=0.25;exitDx=0;exitDy=0;entryX=0;entryY=0.5;entryDx=0;entryDy=0;endArrow=none;endFill=0;" parent="1" source="7pt3q2MDJ_d6-O4SjyfG-89" target="7pt3q2MDJ_d6-O4SjyfG-127" edge="1">
          <mxGeometry relative="1" as="geometry" />
        </mxCell>
        <mxCell id="7pt3q2MDJ_d6-O4SjyfG-89" value="System supporting non-function needs" style="shape=parallelogram;perimeter=parallelogramPerimeter;whiteSpace=wrap;html=1;fixedSize=1;fillColor=#dae8fc;strokeColor=#6c8ebf;" parent="1" vertex="1">
          <mxGeometry x="-315" y="340" width="170" height="60" as="geometry" />
        </mxCell>
        <mxCell id="7pt3q2MDJ_d6-O4SjyfG-90" value="" style="edgeStyle=orthogonalEdgeStyle;rounded=0;orthogonalLoop=1;jettySize=auto;html=1;" parent="1" source="7pt3q2MDJ_d6-O4SjyfG-91" target="7pt3q2MDJ_d6-O4SjyfG-89" edge="1">
          <mxGeometry relative="1" as="geometry" />
        </mxCell>
        <mxCell id="7pt3q2MDJ_d6-O4SjyfG-91" value="" style="ellipse;whiteSpace=wrap;html=1;aspect=fixed;fillColor=#ffff88;strokeColor=#36393d;" parent="1" vertex="1">
          <mxGeometry x="-240" y="540" width="20" height="20" as="geometry" />
        </mxCell>
        <mxCell id="7pt3q2MDJ_d6-O4SjyfG-92" value="" style="endArrow=none;html=1;rounded=0;exitX=0.157;exitY=0.017;exitDx=0;exitDy=0;entryX=1;entryY=1;entryDx=0;entryDy=0;exitPerimeter=0;" parent="1" source="7pt3q2MDJ_d6-O4SjyfG-86" target="7pt3q2MDJ_d6-O4SjyfG-91" edge="1">
          <mxGeometry width="50" height="50" relative="1" as="geometry">
            <mxPoint x="-300" y="600" as="sourcePoint" />
            <mxPoint x="-170" y="570" as="targetPoint" />
          </mxGeometry>
        </mxCell>
        <mxCell id="7pt3q2MDJ_d6-O4SjyfG-93" value="Has Fault Tolerance" style="shape=parallelogram;perimeter=parallelogramPerimeter;whiteSpace=wrap;html=1;fixedSize=1;fillColor=#dae8fc;strokeColor=#000000;strokeWidth=1;" parent="1" vertex="1">
          <mxGeometry x="-510" y="650" width="150" height="60" as="geometry" />
        </mxCell>
        <mxCell id="7pt3q2MDJ_d6-O4SjyfG-94" value="" style="endArrow=none;html=1;rounded=0;entryX=0;entryY=1;entryDx=0;entryDy=0;exitX=0.5;exitY=0;exitDx=0;exitDy=0;" parent="1" source="7pt3q2MDJ_d6-O4SjyfG-93" target="7pt3q2MDJ_d6-O4SjyfG-91" edge="1">
          <mxGeometry width="50" height="50" relative="1" as="geometry">
            <mxPoint x="-370" y="630" as="sourcePoint" />
            <mxPoint x="-320" y="580" as="targetPoint" />
          </mxGeometry>
        </mxCell>
        <mxCell id="7pt3q2MDJ_d6-O4SjyfG-96" style="edgeStyle=orthogonalEdgeStyle;rounded=0;orthogonalLoop=1;jettySize=auto;html=1;exitX=0.5;exitY=0;exitDx=0;exitDy=0;entryX=0.5;entryY=1;entryDx=0;entryDy=0;endArrow=none;endFill=0;" parent="1" source="7pt3q2MDJ_d6-O4SjyfG-97" target="7pt3q2MDJ_d6-O4SjyfG-91" edge="1">
          <mxGeometry relative="1" as="geometry" />
        </mxCell>
        <mxCell id="7pt3q2MDJ_d6-O4SjyfG-97" value="Safe System" style="shape=parallelogram;perimeter=parallelogramPerimeter;whiteSpace=wrap;html=1;fixedSize=1;fillColor=#dae8fc;strokeColor=#6c8ebf;" parent="1" vertex="1">
          <mxGeometry x="-300" y="690" width="140" height="60" as="geometry" />
        </mxCell>
        <mxCell id="7pt3q2MDJ_d6-O4SjyfG-98" style="rounded=0;orthogonalLoop=1;jettySize=auto;html=1;exitX=1;exitY=0.25;exitDx=0;exitDy=0;entryX=0;entryY=0.5;entryDx=0;entryDy=0;endArrow=none;endFill=0;" parent="1" source="7pt3q2MDJ_d6-O4SjyfG-99" target="7pt3q2MDJ_d6-O4SjyfG-91" edge="1">
          <mxGeometry relative="1" as="geometry" />
        </mxCell>
        <mxCell id="7pt3q2MDJ_d6-O4SjyfG-99" value="Fast System" style="shape=parallelogram;perimeter=parallelogramPerimeter;whiteSpace=wrap;html=1;fixedSize=1;fillColor=#dae8fc;strokeColor=#000000;strokeWidth=1;" parent="1" vertex="1">
          <mxGeometry x="-600" y="550" width="150" height="60" as="geometry" />
        </mxCell>
        <mxCell id="7pt3q2MDJ_d6-O4SjyfG-100" style="rounded=0;orthogonalLoop=1;jettySize=auto;html=1;exitX=0.75;exitY=0;exitDx=0;exitDy=0;entryX=0.5;entryY=1;entryDx=0;entryDy=0;endArrow=none;endFill=0;" parent="1" source="7pt3q2MDJ_d6-O4SjyfG-101" target="7pt3q2MDJ_d6-O4SjyfG-103" edge="1">
          <mxGeometry relative="1" as="geometry" />
        </mxCell>
        <mxCell id="7pt3q2MDJ_d6-O4SjyfG-101" value="Fast Connection" style="shape=parallelogram;perimeter=parallelogramPerimeter;whiteSpace=wrap;html=1;fixedSize=1;fillColor=#dae8fc;strokeColor=#000000;strokeWidth=1;" parent="1" vertex="1">
          <mxGeometry x="-850" y="770" width="150" height="60" as="geometry" />
        </mxCell>
        <mxCell id="7pt3q2MDJ_d6-O4SjyfG-102" style="edgeStyle=orthogonalEdgeStyle;rounded=0;orthogonalLoop=1;jettySize=auto;html=1;exitX=1;exitY=0;exitDx=0;exitDy=0;entryX=0.25;entryY=1;entryDx=0;entryDy=0;" parent="1" source="7pt3q2MDJ_d6-O4SjyfG-103" target="7pt3q2MDJ_d6-O4SjyfG-99" edge="1">
          <mxGeometry relative="1" as="geometry" />
        </mxCell>
        <mxCell id="7pt3q2MDJ_d6-O4SjyfG-103" value="" style="ellipse;whiteSpace=wrap;html=1;aspect=fixed;fillColor=#ffff88;strokeColor=#36393d;" parent="1" vertex="1">
          <mxGeometry x="-660" y="650" width="20" height="20" as="geometry" />
        </mxCell>
        <mxCell id="7pt3q2MDJ_d6-O4SjyfG-104" style="rounded=0;orthogonalLoop=1;jettySize=auto;html=1;exitX=0.25;exitY=0;exitDx=0;exitDy=0;entryX=1;entryY=1;entryDx=0;entryDy=0;endArrow=none;endFill=0;" parent="1" source="7pt3q2MDJ_d6-O4SjyfG-105" target="7pt3q2MDJ_d6-O4SjyfG-103" edge="1">
          <mxGeometry relative="1" as="geometry" />
        </mxCell>
        <mxCell id="7pt3q2MDJ_d6-O4SjyfG-131" style="edgeStyle=orthogonalEdgeStyle;rounded=0;orthogonalLoop=1;jettySize=auto;html=1;exitX=1;exitY=0.5;exitDx=0;exitDy=0;fillColor=#ffcccc;strokeColor=#FF6666;" parent="1" source="7pt3q2MDJ_d6-O4SjyfG-105" target="7pt3q2MDJ_d6-O4SjyfG-93" edge="1">
          <mxGeometry relative="1" as="geometry" />
        </mxCell>
        <mxCell id="7pt3q2MDJ_d6-O4SjyfG-105" value="Efficient operations" style="shape=parallelogram;perimeter=parallelogramPerimeter;whiteSpace=wrap;html=1;fixedSize=1;fillColor=#dae8fc;strokeColor=#000000;strokeWidth=1;" parent="1" vertex="1">
          <mxGeometry x="-670" y="770" width="150" height="60" as="geometry" />
        </mxCell>
        <mxCell id="7pt3q2MDJ_d6-O4SjyfG-106" value="Manage Machines" style="shape=parallelogram;perimeter=parallelogramPerimeter;whiteSpace=wrap;html=1;fixedSize=1;fillColor=#dae8fc;strokeColor=#6c8ebf;" parent="1" vertex="1">
          <mxGeometry x="220" y="635" width="140" height="60" as="geometry" />
        </mxCell>
        <mxCell id="7pt3q2MDJ_d6-O4SjyfG-107" value="Manage Classes" style="shape=parallelogram;perimeter=parallelogramPerimeter;whiteSpace=wrap;html=1;fixedSize=1;fillColor=#dae8fc;strokeColor=#6c8ebf;" parent="1" vertex="1">
          <mxGeometry x="280" y="735" width="140" height="60" as="geometry" />
        </mxCell>
        <mxCell id="7pt3q2MDJ_d6-O4SjyfG-108" value="Manage Competitions" style="shape=parallelogram;perimeter=parallelogramPerimeter;whiteSpace=wrap;html=1;fixedSize=1;fillColor=#dae8fc;strokeColor=#6c8ebf;" parent="1" vertex="1">
          <mxGeometry x="410" y="635" width="140" height="60" as="geometry" />
        </mxCell>
        <mxCell id="7pt3q2MDJ_d6-O4SjyfG-135" style="edgeStyle=orthogonalEdgeStyle;rounded=0;orthogonalLoop=1;jettySize=auto;html=1;exitX=0.25;exitY=1;exitDx=0;exitDy=0;entryX=1;entryY=0.5;entryDx=0;entryDy=0;endArrow=none;endFill=0;" parent="1" source="7pt3q2MDJ_d6-O4SjyfG-109" target="7pt3q2MDJ_d6-O4SjyfG-134" edge="1">
          <mxGeometry relative="1" as="geometry" />
        </mxCell>
        <mxCell id="7pt3q2MDJ_d6-O4SjyfG-109" value="Manage Users" style="shape=parallelogram;perimeter=parallelogramPerimeter;whiteSpace=wrap;html=1;fixedSize=1;fillColor=#dae8fc;strokeColor=#6c8ebf;" parent="1" vertex="1">
          <mxGeometry x="510" y="725" width="140" height="60" as="geometry" />
        </mxCell>
        <mxCell id="7pt3q2MDJ_d6-O4SjyfG-110" value="Manage Diets" style="shape=parallelogram;perimeter=parallelogramPerimeter;whiteSpace=wrap;html=1;fixedSize=1;fillColor=#dae8fc;strokeColor=#6c8ebf;" parent="1" vertex="1">
          <mxGeometry x="600" y="625" width="140" height="60" as="geometry" />
        </mxCell>
        <mxCell id="7pt3q2MDJ_d6-O4SjyfG-111" value="Manage Playlists" style="shape=parallelogram;perimeter=parallelogramPerimeter;whiteSpace=wrap;html=1;fixedSize=1;fillColor=#dae8fc;strokeColor=#6c8ebf;" parent="1" vertex="1">
          <mxGeometry x="710" y="725" width="140" height="60" as="geometry" />
        </mxCell>
        <mxCell id="7pt3q2MDJ_d6-O4SjyfG-112" value="Manage Videos" style="shape=parallelogram;perimeter=parallelogramPerimeter;whiteSpace=wrap;html=1;fixedSize=1;fillColor=#dae8fc;strokeColor=#6c8ebf;" parent="1" vertex="1">
          <mxGeometry x="790" y="625" width="140" height="60" as="geometry" />
        </mxCell>
        <mxCell id="7pt3q2MDJ_d6-O4SjyfG-125" style="edgeStyle=orthogonalEdgeStyle;rounded=0;orthogonalLoop=1;jettySize=auto;html=1;exitX=0;exitY=0;exitDx=0;exitDy=0;entryX=0.5;entryY=1;entryDx=0;entryDy=0;" parent="1" source="7pt3q2MDJ_d6-O4SjyfG-113" target="7pt3q2MDJ_d6-O4SjyfG-124" edge="1">
          <mxGeometry relative="1" as="geometry" />
        </mxCell>
        <mxCell id="7pt3q2MDJ_d6-O4SjyfG-113" value="" style="ellipse;whiteSpace=wrap;html=1;aspect=fixed;fillColor=#ffff88;strokeColor=#36393d;" parent="1" vertex="1">
          <mxGeometry x="500" y="435" width="20" height="20" as="geometry" />
        </mxCell>
        <mxCell id="7pt3q2MDJ_d6-O4SjyfG-114" value="" style="endArrow=none;html=1;rounded=0;exitX=0;exitY=1;exitDx=0;exitDy=0;entryX=0.5;entryY=0;entryDx=0;entryDy=0;" parent="1" source="7pt3q2MDJ_d6-O4SjyfG-113" target="7pt3q2MDJ_d6-O4SjyfG-106" edge="1">
          <mxGeometry width="50" height="50" relative="1" as="geometry">
            <mxPoint x="395" y="559" as="sourcePoint" />
            <mxPoint x="250" y="505" as="targetPoint" />
          </mxGeometry>
        </mxCell>
        <mxCell id="7pt3q2MDJ_d6-O4SjyfG-115" value="" style="endArrow=none;html=1;rounded=0;exitX=0.5;exitY=1;exitDx=0;exitDy=0;entryX=0.5;entryY=0;entryDx=0;entryDy=0;" parent="1" source="7pt3q2MDJ_d6-O4SjyfG-113" target="7pt3q2MDJ_d6-O4SjyfG-107" edge="1">
          <mxGeometry width="50" height="50" relative="1" as="geometry">
            <mxPoint x="633" y="482" as="sourcePoint" />
            <mxPoint x="260" y="645" as="targetPoint" />
          </mxGeometry>
        </mxCell>
        <mxCell id="7pt3q2MDJ_d6-O4SjyfG-116" value="" style="endArrow=none;html=1;rounded=0;exitX=0.5;exitY=1;exitDx=0;exitDy=0;entryX=0.5;entryY=0;entryDx=0;entryDy=0;" parent="1" source="7pt3q2MDJ_d6-O4SjyfG-113" target="7pt3q2MDJ_d6-O4SjyfG-108" edge="1">
          <mxGeometry width="50" height="50" relative="1" as="geometry">
            <mxPoint x="640" y="485" as="sourcePoint" />
            <mxPoint x="360" y="745" as="targetPoint" />
          </mxGeometry>
        </mxCell>
        <mxCell id="7pt3q2MDJ_d6-O4SjyfG-118" value="" style="endArrow=none;html=1;rounded=0;entryX=0.5;entryY=0;entryDx=0;entryDy=0;exitX=0;exitY=1;exitDx=0;exitDy=0;" parent="1" source="7pt3q2MDJ_d6-O4SjyfG-113" target="7pt3q2MDJ_d6-O4SjyfG-109" edge="1">
          <mxGeometry width="50" height="50" relative="1" as="geometry">
            <mxPoint x="630" y="475" as="sourcePoint" />
            <mxPoint x="540" y="645" as="targetPoint" />
          </mxGeometry>
        </mxCell>
        <mxCell id="7pt3q2MDJ_d6-O4SjyfG-119" value="" style="endArrow=none;html=1;rounded=0;exitX=1;exitY=1;exitDx=0;exitDy=0;entryX=0.5;entryY=0;entryDx=0;entryDy=0;" parent="1" source="7pt3q2MDJ_d6-O4SjyfG-113" target="7pt3q2MDJ_d6-O4SjyfG-110" edge="1">
          <mxGeometry width="50" height="50" relative="1" as="geometry">
            <mxPoint x="650" y="495" as="sourcePoint" />
            <mxPoint x="550" y="655" as="targetPoint" />
          </mxGeometry>
        </mxCell>
        <mxCell id="7pt3q2MDJ_d6-O4SjyfG-120" value="" style="endArrow=none;html=1;rounded=0;entryX=0.5;entryY=0;entryDx=0;entryDy=0;exitX=1;exitY=0.5;exitDx=0;exitDy=0;" parent="1" source="7pt3q2MDJ_d6-O4SjyfG-113" target="7pt3q2MDJ_d6-O4SjyfG-112" edge="1">
          <mxGeometry width="50" height="50" relative="1" as="geometry">
            <mxPoint x="640" y="465" as="sourcePoint" />
            <mxPoint x="780" y="635" as="targetPoint" />
          </mxGeometry>
        </mxCell>
        <mxCell id="7pt3q2MDJ_d6-O4SjyfG-121" value="" style="endArrow=none;html=1;rounded=0;entryX=0.75;entryY=0;entryDx=0;entryDy=0;exitX=1;exitY=0.5;exitDx=0;exitDy=0;" parent="1" source="7pt3q2MDJ_d6-O4SjyfG-113" target="7pt3q2MDJ_d6-O4SjyfG-111" edge="1">
          <mxGeometry width="50" height="50" relative="1" as="geometry">
            <mxPoint x="640" y="475" as="sourcePoint" />
            <mxPoint x="1030" y="645" as="targetPoint" />
          </mxGeometry>
        </mxCell>
        <mxCell id="7pt3q2MDJ_d6-O4SjyfG-129" style="rounded=0;orthogonalLoop=1;jettySize=auto;html=1;exitX=0;exitY=0.25;exitDx=0;exitDy=0;entryX=1;entryY=1;entryDx=0;entryDy=0;endArrow=none;endFill=0;" parent="1" source="7pt3q2MDJ_d6-O4SjyfG-124" target="7pt3q2MDJ_d6-O4SjyfG-127" edge="1">
          <mxGeometry relative="1" as="geometry" />
        </mxCell>
        <mxCell id="7pt3q2MDJ_d6-O4SjyfG-124" value="System that supports operational needs" style="shape=parallelogram;perimeter=parallelogramPerimeter;whiteSpace=wrap;html=1;fixedSize=1;fillColor=#dae8fc;strokeColor=#6c8ebf;" parent="1" vertex="1">
          <mxGeometry x="290" y="340" width="140" height="60" as="geometry" />
        </mxCell>
        <mxCell id="7pt3q2MDJ_d6-O4SjyfG-126" value="System supporting stakeholders needs" style="shape=parallelogram;perimeter=parallelogramPerimeter;whiteSpace=wrap;html=1;fixedSize=1;fillColor=#dae8fc;strokeColor=#6c8ebf;" parent="1" vertex="1">
          <mxGeometry x="-20" y="170" width="170" height="60" as="geometry" />
        </mxCell>
        <mxCell id="7pt3q2MDJ_d6-O4SjyfG-130" style="rounded=0;orthogonalLoop=1;jettySize=auto;html=1;exitX=0.5;exitY=0;exitDx=0;exitDy=0;entryX=0.465;entryY=1;entryDx=0;entryDy=0;entryPerimeter=0;" parent="1" source="7pt3q2MDJ_d6-O4SjyfG-127" target="7pt3q2MDJ_d6-O4SjyfG-126" edge="1">
          <mxGeometry relative="1" as="geometry" />
        </mxCell>
        <mxCell id="7pt3q2MDJ_d6-O4SjyfG-127" value="" style="ellipse;whiteSpace=wrap;html=1;aspect=fixed;fillColor=#ffff88;strokeColor=#36393d;" parent="1" vertex="1">
          <mxGeometry x="50" y="290" width="20" height="20" as="geometry" />
        </mxCell>
        <mxCell id="7pt3q2MDJ_d6-O4SjyfG-133" value="" style="shape=image;html=1;verticalAlign=top;verticalLabelPosition=bottom;labelBackgroundColor=#ffffff;imageAspect=0;aspect=fixed;image=https://cdn1.iconfinder.com/data/icons/bootstrap-vol-3/16/lightning-128.png;imageBackground=#FF432E;" parent="1" vertex="1">
          <mxGeometry x="-449" y="757" width="28" height="28" as="geometry" />
        </mxCell>
        <mxCell id="7pt3q2MDJ_d6-O4SjyfG-136" style="edgeStyle=orthogonalEdgeStyle;rounded=0;orthogonalLoop=1;jettySize=auto;html=1;exitX=0;exitY=0.5;exitDx=0;exitDy=0;entryX=0.413;entryY=1.023;entryDx=0;entryDy=0;entryPerimeter=0;" parent="1" source="7pt3q2MDJ_d6-O4SjyfG-134" target="7pt3q2MDJ_d6-O4SjyfG-97" edge="1">
          <mxGeometry relative="1" as="geometry" />
        </mxCell>
        <mxCell id="7pt3q2MDJ_d6-O4SjyfG-134" value="" style="ellipse;whiteSpace=wrap;html=1;aspect=fixed;fillColor=#ffff88;strokeColor=#36393d;" parent="1" vertex="1">
          <mxGeometry x="30" y="795" width="20" height="20" as="geometry" />
        </mxCell>
      </root>
    </mxGraphModel>
  </diagram>
</mxfile>
